<svg xmlns="http://www.w3.org/2000/svg" xmlns:xlink="http://www.w3.org/1999/xlink" class="main-svg" width="350" height="350" style="" viewBox="0 0 350 350"><rect x="0" y="0" width="350" height="350" style="fill: rgb(255, 255, 255); fill-opacity: 1;"/><defs id="defs-2ee868"><g class="clips"/><g class="gradients"/><g class="patterns"><pattern id="p2ee868-9df344-1" width="8.485281374238571px" height="8.485281374238571px" patternUnits="userSpaceOnUse" patternTransform=""><rect width="8.485281374238571px" height="8.485281374238571px" fill="rgb(173, 137, 168)" fill-opacity="1"/><path d="M-2.121320343559643,2.121320343559643l4.242640687119286,-4.242640687119286M0,8.485281374238571L8.485281374238571,0M6.3639610306789285,10.606601717798213l4.242640687119286,-4.242640687119286" opacity="1" stroke="rgb(255, 255, 255)" stroke-width="0px"/></pattern><pattern id="p2ee868-7b888b-4" width="8.485281374238571px" height="8.485281374238571px" patternUnits="userSpaceOnUse" patternTransform=""><rect width="8.485281374238571px" height="8.485281374238571px" fill="rgb(169, 213, 169)" fill-opacity="1"/><path d="M-2.121320343559643,2.121320343559643l4.242640687119286,-4.242640687119286M0,8.485281374238571L8.485281374238571,0M6.3639610306789285,10.606601717798213l4.242640687119286,-4.242640687119286" opacity="1" stroke="rgb(255, 255, 255)" stroke-width="0px"/></pattern><pattern id="p2ee868-7b888b-5" width="8.485281374238571px" height="8.485281374238571px" patternUnits="userSpaceOnUse" patternTransform=""><rect width="8.485281374238571px" height="8.485281374238571px" fill="rgb(237, 136, 137)" fill-opacity="1"/><path d="M-2.121320343559643,2.121320343559643l4.242640687119286,-4.242640687119286M0,8.485281374238571L8.485281374238571,0M6.3639610306789285,10.606601717798213l4.242640687119286,-4.242640687119286" opacity="1" stroke="rgb(255, 255, 255)" stroke-width="0px"/></pattern><pattern id="p2ee868-7b888b-6" width="8.485281374238571px" height="8.485281374238571px" patternUnits="userSpaceOnUse" patternTransform=""><rect width="8.485281374238571px" height="8.485281374238571px" fill="rgb(255, 195, 143)" fill-opacity="1"/><path d="M-2.121320343559643,2.121320343559643l4.242640687119286,-4.242640687119286M0,8.485281374238571L8.485281374238571,0M6.3639610306789285,10.606601717798213l4.242640687119286,-4.242640687119286" opacity="1" stroke="rgb(255, 255, 255)" stroke-width="0px"/></pattern><pattern id="p2ee868-7b888b-7" width="8.485281374238571px" height="8.485281374238571px" patternUnits="userSpaceOnUse" patternTransform=""><rect width="8.485281374238571px" height="8.485281374238571px" fill="rgb(153, 194, 221)" fill-opacity="1"/><path d="M-2.121320343559643,2.121320343559643l4.242640687119286,-4.242640687119286M0,8.485281374238571L8.485281374238571,0M6.3639610306789285,10.606601717798213l4.242640687119286,-4.242640687119286" opacity="1" stroke="rgb(255, 255, 255)" stroke-width="0px"/></pattern></g></defs><g class="bglayer"/><g class="layer-below"><g class="imagelayer"/><g class="shapelayer"/></g><g class="cartesianlayer"/><g class="polarlayer"/><g class="smithlayer"/><g class="ternarylayer"/><g class="geolayer"/><g class="funnelarealayer"/><g class="pielayer"><g class="trace" stroke-linejoin="round" style="opacity: 1;"><g class="slice"><path class="surface" d="M157.58400924465866,224.23443349943074a52.22400000000001,52.22400000000001 0 1 0 17.415990755341326,-101.45843349943074l0,-56.576000000000015a108.80000000000003,108.80000000000003 0 1 1 -36.283314073627764,211.3717364571474Z" style="pointer-events: none; stroke-width: 2; fill: rgb(80, 44, 74); fill-opacity: 1; stroke: rgb(0, 0, 0); stroke-opacity: 1;"/><g class="slicetext"><text data-notex="1" class="slicetext" transform="translate(254.10238273079676,183.07137305577893)" text-anchor="middle" x="0" y="0" style="font-family: cmss10; font-size: 17px; fill: rgb(255, 255, 255); fill-opacity: 1; white-space: pre;"><tspan class="line" dy="0em" x="0" y="0">Train</tspan><tspan class="line" dy="1.3em" x="0" y="0">768</tspan></text></g></g><g class="slice"><path class="surface pattern_filled" d="M175,122.77599999999998a52.22400000000001,52.22400000000001 0 0 0 -17.415990755341312,101.45843349943074l-18.867323318286438,53.33730295771662a108.80000000000003,108.80000000000003 0 0 1 36.283314073627736,-211.3717364571474Z" style="pointer-events: none; stroke-width: 2; fill: url('#p2ee868-9df344-1'); stroke: rgb(0, 0, 0); stroke-opacity: 1;"/><g class="slicetext"><text data-notex="1" class="slicetext" transform="translate(95.51626961295324,155.8290175692211)" text-anchor="middle" x="0" y="0" style="font-family: cmss10; font-size: 17px; fill: rgb(0, 0, 0); fill-opacity: 1; white-space: pre;"><tspan class="line" dy="0em" x="0" y="0">Test</tspan><tspan class="line" dy="1.3em" x="0" y="0">618</tspan></text></g></g></g><g class="trace" stroke-linejoin="round" style="opacity: 1;"><g class="slice"><path class="surface" d="M266.9873324696478,123.54622788251115a105.4,105.4 0 0 0 -91.98733246964782,-53.946227882511145l0,-64.6a170,170 0 0 1 148.36666527362553,87.01004497179217Z" style="pointer-events: none; stroke-width: 3; fill: rgb(71, 150, 71); fill-opacity: 1; stroke: rgb(0, 0, 0); stroke-opacity: 1;"/><g class="slicetext"><text data-notex="1" class="slicetext" transform="translate(244.65931160303978,51.46923427174495)" text-anchor="middle" x="0" y="0" style="font-family: cmss10; font-size: 15px; fill: rgb(255, 255, 255); fill-opacity: 1; white-space: pre;"><tspan class="line" dy="0em" x="0" y="0">Wiki</tspan><tspan class="line" dy="1.3em" x="0" y="0">234</tspan></text></g></g><g class="slice"><path class="surface" d="M278.8806415209966,192.83177829567762a105.4,105.4 0 0 0 -11.893309051348757,-69.28555041316648l56.379332803977704,-31.536182910718978a170,170 0 0 1 19.18275653443348,111.75088776317173Z" style="pointer-events: none; stroke-width: 3; fill: rgb(214, 39, 40); fill-opacity: 1; stroke: rgb(0, 0, 0); stroke-opacity: 1;"/><g class="slicetext"><text data-notex="1" class="slicetext" transform="translate(310.6398363520278,146.95364448467916)" text-anchor="middle" x="0" y="0" style="font-family: cmss10; font-size: 15px; fill: rgb(255, 255, 255); fill-opacity: 1; white-space: pre;"><tspan class="line" dy="0em" x="0" y="0">News</tspan><tspan class="line" dy="1.3em" x="0" y="0">150</tspan></text></g></g><g class="slice"><path class="surface" d="M215.50031575552748,272.3081929937175a105.4,105.4 0 0 0 63.38032576546911,-79.47641469803987l63.668780287062425,10.929154439286286a170,170 0 0 1 -102.22633187978889,128.1877656419998Z" style="pointer-events: none; stroke-width: 3; fill: rgb(255, 127, 14); fill-opacity: 1; stroke: rgb(0, 0, 0); stroke-opacity: 1;"/><g class="slicetext"><text data-notex="1" class="slicetext" transform="translate(282.6581951358478,256.10454571594755)" text-anchor="middle" x="0" y="0" style="font-family: cmss10; font-size: 15px; fill: rgb(255, 255, 255); fill-opacity: 1; white-space: pre;"><tspan class="line" dy="0em" x="0" y="0">Shop</tspan><tspan class="line" dy="1.3em" x="0" y="0">222</tspan></text></g></g><g class="slice"><path class="surface" d="M139.85053949117315,274.3663696928615a105.4,105.4 0 0 0 75.64977626435433,-2.058176699143993l24.822774172742648,59.64050538324621a170,170 0 0 1 -122.01576816831343,3.319639837329021Z" style="pointer-events: none; stroke-width: 3; fill: rgb(31, 119, 180); fill-opacity: 1; stroke: rgb(0, 0, 0); stroke-opacity: 1;"/><g class="slicetext"><text data-notex="1" class="slicetext" transform="translate(178.7449694241547,307.8990653946192)" text-anchor="middle" x="0" y="0" style="font-family: cmss10; font-size: 15px; fill: rgb(255, 255, 255); fill-opacity: 1; white-space: pre;"><tspan class="line" dy="0em" x="0" y="0">Multi</tspan><tspan class="line" dy="1.3em" x="0" y="0">162</tspan></text></g></g><g class="slice"><path class="surface pattern_filled" d="M77.41865737179737,214.8376903306068a105.4,105.4 0 0 0 62.431882119375786,59.52867936225471l-21.54321773121646,60.901968521431236a170,170 0 0 1 -100.69658406350933,-96.01399897137856Z" style="pointer-events: none; stroke-width: 3; fill: url('#p2ee868-7b888b-4'); stroke: rgb(0, 0, 0); stroke-opacity: 1;"/><g class="slicetext"><text data-notex="1" class="slicetext" transform="translate(79.9761201189132,269.9081770470682)" text-anchor="middle" x="0" y="0" style="font-family: cmss10; font-size: 15px; fill: rgb(0, 0, 0); fill-opacity: 1; white-space: pre;"><tspan class="line" dy="0em" x="0" y="0">Wiki</tspan><tspan class="line" dy="1.3em" x="0" y="0">186</tspan></text></g></g><g class="slice"><path class="surface pattern_filled" d="M71.93314104060671,152.94591683509535a105.4,105.4 0 0 0 5.485516331190651,61.891773495511444l-59.80791967535001,24.416648912307384a170,170 0 0 1 -8.847606985791373,-99.82544112179265Z" style="pointer-events: none; stroke-width: 3; fill: url('#p2ee868-7b888b-5'); stroke: rgb(0, 0, 0); stroke-opacity: 1;"/><g class="slicetext"><text data-notex="1" class="slicetext" transform="translate(37.76248434782238,182.406803816615)" text-anchor="middle" x="0" y="0" style="font-family: cmss10; font-size: 15px; fill: rgb(0, 0, 0); fill-opacity: 1; white-space: pre;"><tspan class="line" dy="0em" x="0" y="0">News</tspan><tspan class="line" dy="1.3em" x="0" y="0">132</tspan></text></g></g><g class="slice"><path class="surface pattern_filled" d="M113.27959821781971,89.56141384686755a105.4,105.4 0 0 0 -41.346457177213,63.384502988227794l-63.17001032995073,-13.517018713973822a170,170 0 0 1 66.68783415679516,-102.23306933585128Z" style="pointer-events: none; stroke-width: 3; fill: url('#p2ee868-7b888b-6'); stroke: rgb(0, 0, 0); stroke-opacity: 1;"/><g class="slicetext"><text data-notex="1" class="slicetext" transform="translate(59.66829609193333,95.01777237339012)" text-anchor="middle" x="0" y="0" style="font-family: cmss10; font-size: 15px; fill: rgb(0, 0, 0); fill-opacity: 1; white-space: pre;"><tspan class="line" dy="0em" x="0" y="0">Shop</tspan><tspan class="line" dy="1.3em" x="0" y="0">162</tspan></text></g></g><g class="slice"><path class="surface pattern_filled" d="M174.99999999999997,69.6a105.4,105.4 0 0 0 -61.72040178218026,19.961413846867547l-37.82863335036856,-52.36558506159731a170,170 0 0 1 99.54903513254881,-32.19582878527024Z" style="pointer-events: none; stroke-width: 3; fill: url('#p2ee868-7b888b-7'); stroke: rgb(0, 0, 0); stroke-opacity: 1;"/><g class="slicetext"><text data-notex="1" class="slicetext" transform="translate(132.62650501066327,39.231768740420506)" text-anchor="middle" x="0" y="0" style="font-family: cmss10; font-size: 15px; fill: rgb(0, 0, 0); fill-opacity: 1; white-space: pre;"><tspan class="line" dy="0em" x="0" y="0">Multi</tspan><tspan class="line" dy="1.3em" x="0" y="0">138</tspan></text></g></g></g></g><g class="iciclelayer"/><g class="treemaplayer"/><g class="sunburstlayer"/><g class="glimages"/><defs id="topdefs-2ee868"><g class="clips"/></defs><g class="layer-above"><g class="imagelayer"/><g class="shapelayer"/></g><g class="infolayer"><g class="g-gtitle"/><g class="annotation" data-index="0" style="opacity: 1;"><g class="annotation-text-g" transform="rotate(0,175,175)"><g class="cursor-pointer" transform="translate(135,152)"><rect class="bg" x="0.5" y="0.5" width="80" height="46" style="stroke-width: 1px; stroke: rgb(0, 0, 0); stroke-opacity: 0; fill: rgb(0, 0, 0); fill-opacity: 0;"/><text class="annotation-text" text-anchor="middle" x="40.5546875" y="18" style="font-family: cmss10; font-size: 18px; fill: rgb(44, 62, 80); fill-opacity: 1; white-space: pre;"><tspan class="line" dy="0em" x="40.5546875" y="18"><tspan style="font-family:Latin Modern; font-variant:small-caps">TimeWarp</tspan></tspan><tspan class="line" dy="1.3em" x="40.5546875" y="18">1386</tspan></text></g></g></g></g></svg>